HIERARCHY
ROOT root
{
	OFFSET 0.000000 0.000000 0.000000
	CHANNELS 6 Xposition Yposition Zposition Zrotation Yrotation Xrotation
	JOINT lhip
	{
		OFFSET 0.058581 -0.082280 -0.017664
		CHANNELS 3 Zrotation Yrotation Xrotation
		JOINT lknee
		{
			OFFSET 0.043451 -0.386469 0.008037
			CHANNELS 3 Zrotation Yrotation Xrotation
			JOINT lankle
			{
				OFFSET -0.014790 -0.426874 -0.037428
				CHANNELS 3 Zrotation Yrotation Xrotation
				JOINT ltoe
				{
					OFFSET 0.041054 -0.060286 0.122042
					CHANNELS 3 Zrotation Yrotation Xrotation
					End Site
					{
						OFFSET 0.000000 0.000000 0.000000
					}
				}
			}
		}
	}
	JOINT rhip
	{
		OFFSET -0.060310 -0.090513 -0.013543
		CHANNELS 3 Zrotation Yrotation Xrotation
		JOINT rknee
		{
			OFFSET -0.043257 -0.383688 -0.004843
			CHANNELS 3 Zrotation Yrotation Xrotation
			JOINT rankle
			{
				OFFSET 0.019056 -0.420046 -0.034562
				CHANNELS 3 Zrotation Yrotation Xrotation
				JOINT rtoe
				{
					OFFSET -0.034840 -0.062106 0.130323
					CHANNELS 3 Zrotation Yrotation Xrotation
					End Site
					{
						OFFSET 0.000000 0.000000 0.000000
					}
				}
			}
		}
	}
	JOINT lowerback
	{
		OFFSET 0.004439 0.124404 -0.038385
		CHANNELS 3 Zrotation Yrotation Xrotation
		JOINT upperback
		{
			OFFSET 0.004488 0.137956 0.026820
			CHANNELS 3 Zrotation Yrotation Xrotation
			JOINT chest
			{
				OFFSET -0.002265 0.056032 0.002855
				CHANNELS 3 Zrotation Yrotation Xrotation
				JOINT lowerneck
				{
					OFFSET -0.013390 0.211636 -0.033468
					CHANNELS 3 Zrotation Yrotation Xrotation
					JOINT upperneck
					{
						OFFSET 0.010113 0.088937 0.050410
						CHANNELS 3 Zrotation Yrotation Xrotation
						End Site
						{
							OFFSET 0.000000 0.000000 0.000000
						}
					}
				}
				JOINT lclavicle
				{
					OFFSET 0.071702 0.114000 -0.018898
					CHANNELS 3 Zrotation Yrotation Xrotation
					JOINT lshoulder
					{
						OFFSET 0.122921 0.045205 -0.019046
						CHANNELS 3 Zrotation Yrotation Xrotation
						JOINT lelbow
						{
							OFFSET 0.255332 -0.015649 -0.022946
							CHANNELS 3 Zrotation Yrotation Xrotation
							JOINT lwrist
							{
								OFFSET 0.265709 0.012698 -0.007375
								CHANNELS 3 Zrotation Yrotation Xrotation
								End Site
								{
									OFFSET 0.000000 0.000000 0.000000
								}
							}
						}
					}
				}
				JOINT rclavicle
				{
					OFFSET -0.082954 0.112472 -0.023707
					CHANNELS 3 Zrotation Yrotation Xrotation
					JOINT rshoulder
					{
						OFFSET -0.113228 0.046853 -0.008472
						CHANNELS 3 Zrotation Yrotation Xrotation
						JOINT relbow
						{
							OFFSET -0.260127 -0.014369 -0.031269
							CHANNELS 3 Zrotation Yrotation Xrotation
							JOINT rwrist
							{
								OFFSET -0.269108 0.006794 -0.006027
								CHANNELS 3 Zrotation Yrotation Xrotation
								End Site
								{
									OFFSET 0.000000 0.000000 0.000000
								}
							}
						}
					}
				}
			}
		}
	}
}
MOTION
Frames: 16
Frame Time: 0.033333
-0.791264 0.279306 0.992713 90.774604 0.997313 87.032396 4.896508 0.775096 -8.428303 -6.554517 1.264745 18.431973 1.602270 10.091515 -10.450636 0.000000 -0.000000 0.000000 -3.786072 -2.197701 -10.648557 4.298112 -4.239697 19.694954 1.631542 -5.297466 -8.452905 0.000000 -0.000000 0.000000 -0.087261 1.413849 14.260271 2.518272 -3.868042 5.853642 1.160203 -1.472949 -1.085665 -1.120684 0.526907 11.304455 1.406162 -1.973799 15.264256 -22.904867 -8.100094 3.016814 -58.761539 -17.704588 13.283160 7.676129 -20.013999 -5.983489 -0.597510 -6.802887 -5.740383 24.307332 10.600260 3.848201 54.372466 15.422549 12.811803 -14.180581 21.543315 -10.669189 2.946213 5.650001 -4.410232 
-0.791509 0.279871 0.992077 90.719358 1.030909 86.976985 4.926590 0.826760 -8.710535 -6.566645 1.456531 19.060941 1.854593 9.994864 -10.707778 0.000000 -0.000000 0.000000 -3.785018 -2.116925 -10.841785 4.259798 -4.328414 20.124435 1.593755 -5.256635 -8.646157 0.000000 -0.000000 0.000000 -0.089374 1.446194 14.414081 2.598725 -3.897552 5.920517 1.132933 -1.448308 -1.187357 -1.088143 0.529172 11.146599 1.433166 -1.986894 15.230449 -22.873737 -8.190644 3.096187 -58.445289 -17.551773 13.266572 7.309785 -20.260006 -5.843987 -0.211805 -6.843458 -5.807149 24.342928 10.703160 3.906318 54.152331 15.654727 12.758094 -13.826853 21.769395 -10.595112 2.767220 5.745579 -4.463890 
-0.792170 0.280562 0.991306 90.694890 1.040624 86.901685 4.938180 0.780083 -9.037475 -6.656088 1.548597 19.756389 1.946502 10.087535 -11.006901 0.000000 -0.000000 0.000000 -3.811203 -1.995568 -11.147212 4.221358 -4.401467 20.731355 1.534318 -5.303147 -8.880091 0.000000 -0.000000 0.000000 -0.078677 1.429594 14.716105 2.621533 -3.876575 5.834908 1.124120 -1.431570 -1.190517 -1.047808 0.486452 10.882352 1.482184 -2.029458 15.238865 -22.803553 -8.383700 3.050704 -58.074386 -17.536452 13.285309 6.735950 -20.526567 -5.710131 0.349720 -7.019170 -6.188988 24.307292 10.892089 3.853621 53.908349 15.868807 12.804368 -13.584655 22.149273 -10.477335 2.598972 5.948572 -4.536750 
-0.793426 0.281472 0.989967 90.642949 1.036315 86.790672 4.986904 0.775636 -9.525324 -6.833560 1.731410 20.776735 2.070240 10.150331 -11.403634 0.000000 -0.000000 0.000000 -3.872565 -1.800818 -11.659032 4.167015 -4.540524 21.737062 1.437482 -5.356107 -9.257406 0.000000 -0.000000 0.000000 -0.065226 1.393363 15.310739 2.625557 -3.821463 5.634888 1.138196 -1.381539 -1.248552 -1.026694 0.405204 10.625290 1.519538 -2.111961 15.134937 -22.560266 -8.830548 2.950265 -57.650488 -17.618772 13.357832 6.413858 -21.552925 -5.443115 0.561344 -6.958673 -6.309157 24.059004 11.284199 3.773039 53.650641 16.102886 12.790520 -13.631419 23.182215 -10.484420 2.646870 6.187024 -4.699438 
-0.794586 0.282027 0.988801 90.601691 1.043346 86.742543 5.063463 0.805711 -9.925833 -6.990116 1.864762 21.513628 2.173838 10.162591 -11.685141 0.000000 -0.000000 0.000000 -3.907790 -1.726625 -12.138089 4.130684 -4.648267 22.575436 1.376255 -5.336141 -9.542997 0.000000 -0.000000 0.000000 -0.049041 1.358316 15.756769 2.637274 -3.800465 5.503433 1.145518 -1.360980 -1.303273 -1.021478 0.381406 10.432386 1.518671 -2.156284 15.024016 -22.371968 -9.175750 2.853935 -57.393567 -17.739849 13.433865 6.420657 -22.451963 -5.262301 0.718192 -6.872118 -6.264258 23.873250 11.595384 3.679351 53.447797 16.333020 12.738798 -13.751205 23.920771 -10.550306 2.664903 6.303504 -4.828525 
-0.796845 0.282773 0.986652 90.539692 1.029299 86.706629 5.157316 0.804645 -10.663198 -7.215869 2.100629 22.725852 2.345596 10.199512 -12.105553 0.000000 -0.000000 0.000000 -3.983791 -1.617603 -13.071769 4.067584 -4.820721 24.071552 1.260374 -5.318886 -10.016119 0.000000 -0.000000 0.000000 -0.065371 1.286509 16.520256 2.653440 -3.790858 5.240764 1.157571 -1.334749 -1.362109 -0.996429 0.414689 10.043202 1.495038 -2.190390 14.912677 -22.054282 -9.657830 2.623546 -57.018053 -18.049184 13.441266 6.445988 -23.794640 -5.470191 1.078796 -6.847307 -6.665355 23.628454 12.084447 3.446200 53.095119 16.806790 12.656810 -13.975154 24.829625 -10.752651 2.692742 6.429947 -4.965553 
-0.799957 0.283542 0.983635 90.445984 0.984840 86.685523 5.224945 0.780867 -11.688873 -7.444296 2.409366 24.347178 2.580527 10.296030 -12.650495 0.000000 -0.000000 0.000000 -4.065985 -1.496665 -14.343369 3.947353 -4.968013 26.037807 1.085757 -5.308288 -10.614099 0.000000 -0.000000 0.000000 -0.108351 1.217634 17.532102 2.671931 -3.800487 4.898543 1.168317 -1.306269 -1.456176 -0.985506 0.514354 9.571782 1.457242 -2.171510 14.696137 -21.657820 -10.175848 2.328351 -56.609156 -18.369032 13.414823 6.619863 -25.460522 -5.983009 1.543562 -6.804732 -7.204739 23.383271 12.648791 3.131054 52.658249 17.344403 12.504787 -14.388605 25.847259 -11.173573 2.680916 6.584360 -5.047722 
-0.804369 0.284327 0.979374 90.331293 0.970557 86.688960 5.366587 0.728171 -13.086024 -7.719877 2.776690 26.467977 2.857263 10.452809 -13.363141 0.000000 -0.000000 0.000000 -4.097977 -1.324982 -15.977961 3.757325 -5.141841 28.466878 0.835270 -5.302276 -11.347254 0.000000 -0.000000 0.000000 -0.114278 1.141360 18.883590 2.703406 -3.783590 4.453533 1.197427 -1.269381 -1.536086 -1.012880 0.649103 8.878573 1.420147 -2.116604 14.310060 -21.165066 -10.709777 1.963292 -56.212374 -18.663833 13.393753 7.004515 -27.473309 -6.580647 2.194855 -6.840310 -7.824766 23.077082 13.216863 2.732386 52.122881 17.879760 12.224642 -14.979487 27.135106 -11.784516 2.491162 6.848717 -5.203551 
-0.809792 0.285129 0.973612 90.193106 0.974870 86.685620 5.550641 0.689966 -14.745846 -7.981738 3.208215 28.996118 3.150255 10.638638 -14.250606 0.000000 -0.000000 0.000000 -4.152181 -1.076362 -17.826667 3.575428 -5.385068 31.167810 0.496161 -5.334223 -12.160720 0.000000 -0.000000 0.000000 -0.152362 1.062250 20.521985 2.770790 -3.742981 4.056436 1.289145 -1.222877 -1.597099 -1.069972 0.832716 7.978402 1.405974 -2.044276 13.727861 -20.613234 -11.270048 1.521377 -55.809335 -18.916826 13.304854 7.596681 -29.530046 -7.547048 3.056965 -7.028249 -8.700411 22.662496 13.821984 2.255796 51.462420 18.316708 11.901388 -15.614223 28.558757 -12.450856 2.166251 7.262872 -5.445616 
-0.817794 0.286188 0.963819 89.996954 1.002793 86.770904 5.804121 0.643880 -17.293372 -8.207489 3.849849 32.689256 3.549382 10.908645 -15.533387 0.000000 -0.000000 0.000000 -4.286349 -0.804176 -20.603418 3.362887 -5.741388 35.052774 0.071717 -5.333700 -13.343573 0.000000 -0.000000 0.000000 -0.182764 0.946095 22.887924 2.860819 -3.691957 3.499521 1.424377 -1.166405 -1.655357 -1.208390 1.094029 6.752921 1.431221 -1.828341 12.700596 -19.862497 -11.777808 0.944697 -55.393348 -19.026353 13.010978 8.642523 -31.945171 -9.429087 4.352905 -7.204164 -10.223443 21.967589 14.470150 1.625678 50.709420 18.637559 11.474791 -16.365099 30.177136 -13.208061 1.637941 7.826107 -5.729595 
-0.824708 0.286985 0.953658 89.838052 1.056158 86.996984 6.071476 0.655884 -19.770262 -8.348030 4.431447 36.003897 3.912996 11.151391 -16.660022 0.000000 -0.000000 0.000000 -4.397099 -0.735057 -23.257799 3.202899 -6.022698 38.515270 -0.300604 -5.304081 -14.392338 0.000000 -0.000000 0.000000 -0.149264 0.864729 24.848425 2.924875 -3.634336 2.927281 1.488141 -1.123582 -1.623684 -1.288213 1.233712 5.775011 1.445244 -1.588827 11.775287 -19.237688 -11.801025 0.499859 -55.264990 -18.862450 12.764667 9.496917 -33.537128 -11.012766 5.219870 -7.074414 -11.598535 21.322450 14.621946 1.150150 50.453063 18.607404 11.087761 -16.994842 30.999117 -13.873358 1.431428 8.178811 -6.170462 
-0.831432 0.287714 0.941875 89.590354 1.133092 87.206173 6.447676 0.767617 -22.362170 -8.510719 5.076547 39.540708 4.254927 11.401262 -17.821784 0.000000 -0.000000 0.000000 -4.499603 -0.592818 -25.929556 3.055815 -6.286769 42.013059 -0.733766 -5.343823 -15.446970 0.000000 -0.000000 0.000000 -0.128253 0.815050 26.796908 2.977034 -3.487553 2.561616 1.512937 -1.047614 -1.536687 -1.301742 1.340085 4.698662 1.459339 -1.416032 10.834707 -18.902006 -11.579792 0.236640 -55.034777 -18.424085 12.426960 10.215377 -34.711860 -12.387362 5.830314 -6.822111 -12.710384 20.980890 14.474874 0.940203 50.270695 18.207638 10.548025 -17.700453 31.474542 -14.759074 1.229956 8.346203 -6.700303 
-0.838759 0.287651 0.928641 89.080224 1.587230 87.424063 7.260960 1.365709 -25.309579 -7.998584 6.078219 43.787912 3.019693 10.454905 -20.148708 0.000000 -0.000000 0.000000 -4.174481 0.214232 -28.966653 2.525829 -6.556623 46.159800 2.139130 -4.777973 -17.644771 0.000000 -0.000000 0.000000 -0.271665 0.218865 30.101813 3.225461 -1.997205 -2.918265 1.543635 -1.141838 3.493365 -0.411052 3.065755 0.756483 -0.192089 -3.484743 11.896017 -18.583044 -10.357616 0.409734 -54.874514 -19.133275 11.228346 8.522957 -35.897977 -4.743987 9.656980 -5.719018 -22.906693 20.024052 12.294464 0.045169 51.592339 18.766554 11.977722 -18.823771 31.958737 -12.541514 -1.851648 5.128974 -10.779418 
-0.845086 0.288237 0.914856 88.780893 1.667584 87.998343 7.643230 1.359150 -28.470011 -7.886562 6.808919 47.508534 3.455568 10.802763 -21.295838 0.000000 -0.000000 0.000000 -4.361618 0.583177 -32.223602 2.333230 -6.860511 49.920479 1.917011 -4.955613 -18.777299 0.000000 -0.000000 0.000000 -0.416067 0.122422 31.897993 3.241850 -1.710640 -3.541890 1.618482 -1.165932 3.843628 -0.576495 3.232440 -0.290482 -0.084194 -3.273967 10.771547 -18.418190 -9.371800 0.634783 -55.334908 -17.876411 10.825240 8.691654 -35.949299 -4.515163 9.998721 -5.180673 -23.830726 19.735425 11.410766 0.176845 52.365274 17.513450 11.751221 -19.000378 31.524552 -12.440645 -1.794567 4.837030 -11.513672 
-0.850990 0.288937 0.900078 88.660883 1.728048 88.641089 7.976629 1.316320 -31.760593 -7.686772 7.452522 51.193997 3.832598 11.158385 -22.300370 0.000000 -0.000000 0.000000 -4.609017 0.848934 -35.470112 2.156225 -7.156269 53.518800 1.649832 -5.292812 -19.846223 0.000000 -0.000000 0.000000 -0.478879 -0.005294 33.632864 3.250419 -1.521092 -4.007029 1.643700 -1.247356 4.147260 -0.810931 3.415995 -1.270181 0.053116 -3.002668 9.411401 -18.529244 -8.298200 1.007761 -55.617483 -16.261963 10.284274 8.169858 -35.238334 -3.558531 9.962316 -4.667197 -23.678122 19.655925 10.314322 0.601608 53.064428 15.891025 11.398972 -18.707442 30.943074 -11.782240 -1.577787 4.417049 -11.526941 
-0.856478 0.289705 0.884716 88.587483 1.791680 89.385660 8.320176 1.276955 -35.136921 -7.545879 7.978711 54.798915 4.188059 11.574173 -23.248142 0.000000 -0.000000 0.000000 -4.957597 1.171193 -38.769826 1.987986 -7.519092 57.013428 1.493830 -5.661177 -20.837322 0.000000 -0.000000 0.000000 -0.520915 -0.160847 35.359034 3.244814 -1.287678 -4.554209 1.643716 -1.370442 4.466647 -1.081665 3.555789 -2.298878 0.229987 -2.751285 8.054958 -18.794043 -7.027120 1.603522 -55.926155 -14.338197 9.755384 7.041918 -33.967864 -2.000842 9.838290 -4.539803 -23.233251 19.662438 8.945778 1.184774 53.803610 13.900884 11.074235 -17.892613 30.272420 -10.544523 -1.283588 4.163602 -11.252604 
